<svg width="249" height="253" viewBox="0 0 249 253" fill="none" xmlns="http://www.w3.org/2000/svg">
<path d="M103.5 156.44C103.14 157.04 103.02 157.58 103.14 158.06V158.42C102.66 159.5 102.54 160.52 102.78 161.48C102.78 161.84 102.72 162.02 102.6 162.02C102.48 162.02 102.42 162.02 102.42 162.02C102.42 161.9 102.42 161.84 102.42 161.84L101.88 160.4C101.64 159.68 101.34 159.14 100.98 158.78C100.74 158.54 100.5 158.54 100.26 158.78C100.02 159.02 99.9 159.5 99.9 160.22C99.9 160.34 99.9 160.58 99.9 160.94C100.02 161.3 100.08 161.66 100.08 162.02C100.08 161.9 100.02 161.84 99.9 161.84C99.9 161.72 99.9 161.66 99.9 161.66C99.78 161.42 99.66 161.3 99.54 161.3C99.42 161.3 99.36 161.42 99.36 161.66C98.88 162.14 98.64 162.56 98.64 162.92C98.28 162.68 97.98 162.5 97.74 162.38C97.5 162.14 97.26 161.96 97.02 161.84C96.3 163.16 96 164.48 96.12 165.8C96.12 166.64 95.7 167.06 94.86 167.06C94.5 167.06 94.14 167.12 93.78 167.24C93.42 167.24 93 167.24 92.52 167.24C92.52 167.24 92.52 167.3 92.52 167.42C92.52 167.42 92.46 167.48 92.34 167.6C91.98 168.08 91.62 168.14 91.26 167.78C91.14 167.54 90.96 167.54 90.72 167.78C90.48 167.9 90.36 168.08 90.36 168.32C90.36 169.52 90.12 170.3 89.64 170.66C89.64 170.66 89.58 170.78 89.46 171.02C89.46 171.14 89.46 171.32 89.46 171.56C89.46 172.04 89.46 172.52 89.46 173C89.46 173.48 89.52 174.02 89.64 174.62C89.64 174.74 89.52 174.92 89.28 175.16C89.28 175.16 89.22 175.16 89.1 175.16C89.1 175.16 89.1 175.22 89.1 175.34C88.62 176.18 88.14 176.36 87.66 175.88C87.18 175.76 86.7 175.34 86.22 174.62C86.1 174.38 85.98 174.14 85.86 173.9C85.74 173.66 85.56 173.48 85.32 173.36C85.68 172.76 85.68 172.28 85.32 171.92C85.2 171.8 85.14 171.68 85.14 171.56C85.14 171.44 85.08 171.32 84.96 171.2C84.84 170.6 84.48 170 83.88 169.4C83.64 169.04 83.52 168.5 83.52 167.78C83.64 167.3 83.58 166.7 83.34 165.98C83.1 165.86 82.98 165.5 82.98 164.9C83.22 164.42 83.22 163.88 82.98 163.28C82.98 162.32 82.62 161.48 81.9 160.76C81.18 160.04 80.52 159.32 79.92 158.6C79.32 157.76 78.84 156.8 78.48 155.72C78.36 155.12 77.64 153.98 76.32 152.3C75.12 150.5 73.86 148.7 72.54 146.9C71.34 145.1 70.62 143.9 70.38 143.3C69.9 142.46 69.48 141.56 69.12 140.6C68.76 139.64 68.4 138.74 68.04 137.9C67.8 136.94 67.44 136.1 66.96 135.38C66.48 134.66 66 133.94 65.52 133.22C65.28 132.98 64.92 132.5 64.44 131.78C64.44 131.66 64.38 131.54 64.26 131.42C64.14 131.3 64.2 131.24 64.44 131.24C64.56 131.24 64.56 131.06 64.44 130.7C64.44 130.34 64.38 130.1 64.26 129.98H63.36C63.12 129.74 63 129.26 63 128.54C62.76 127.82 62.4 127.52 61.92 127.64C61.92 127.64 61.86 127.58 61.74 127.46C61.62 127.34 61.62 127.28 61.74 127.28C61.74 126.68 61.5 126.32 61.02 126.2C60.9 126.2 60.78 126.14 60.66 126.02C60.54 125.9 60.36 125.78 60.12 125.66C60.12 125.3 60 125 59.76 124.76C60 124.4 60.18 123.86 60.3 123.14C60.06 122.9 59.76 122.66 59.4 122.42L58.68 123.14C58.56 123.14 58.5 123.14 58.5 123.14V122.78C58.5 122.3 58.44 122 58.32 121.88C57.6 121.64 57 121.28 56.52 120.8C56.16 120.2 55.68 119.72 55.08 119.36C55.44 119.36 55.68 119.12 55.8 118.64C55.8 118.4 55.8 118.16 55.8 117.92C55.92 117.56 55.86 117.32 55.62 117.2C55.5 116.96 55.38 116.84 55.26 116.84C55.14 116.84 55.02 116.78 54.9 116.66C54.54 116.06 54.18 115.52 53.82 115.04C53.58 114.44 53.28 114.02 52.92 113.78C52.56 113.3 52.26 112.88 52.02 112.52C51.9 112.16 51.6 111.86 51.12 111.62C50.76 111.38 50.46 111.08 50.22 110.72C49.98 110.24 49.68 109.88 49.32 109.64L47.7 108.2C47.46 107.96 47.22 108.08 46.98 108.56C46.98 108.56 46.92 108.56 46.8 108.56C46.8 108.56 46.8 108.62 46.8 108.74C46.68 108.62 46.56 108.44 46.44 108.2C46.32 107.96 46.2 107.78 46.08 107.66L43.92 104.78C43.8 104.78 43.74 104.72 43.74 104.6C43.74 104.36 43.8 104.18 43.92 104.06C44.04 103.7 43.92 103.4 43.56 103.16C43.2 102.8 42.9 102.56 42.66 102.44C42.66 102.44 42.6 102.44 42.48 102.44C42.48 102.44 42.48 102.5 42.48 102.62L42.66 103.34C42.42 103.1 42.18 102.92 41.94 102.8C41.7 102.56 41.58 102.26 41.58 101.9C41.58 101.9 41.52 101.84 41.4 101.72C41.4 101.6 41.4 101.48 41.4 101.36C40.92 101.12 40.5 100.82 40.14 100.46C39.9 100.1 39.66 99.74 39.42 99.38C39.42 99.38 39.36 99.38 39.24 99.38C39.24 99.26 39.18 99.2 39.06 99.2C38.7 99.08 38.34 98.84 37.98 98.48C37.74 98.12 37.5 97.88 37.26 97.76L36.18 96.5C35.82 93.62 35.4 92.06 34.92 91.82C34.56 91.46 34.14 91.52 33.66 92C33.3 92.48 32.88 92.48 32.4 92C32.28 91.88 32.16 91.64 32.04 91.28C31.56 90.68 31.02 90.62 30.42 91.1C30.3 91.58 30.06 92 29.7 92.36L30.78 93.26C30.66 94.1 30.48 95.06 30.24 96.14C30.12 97.1 30.3 98.06 30.78 99.02V100.28C30.3 100.28 30.06 100.4 30.06 100.64C30.06 101.24 30 101.84 29.88 102.44C29.88 102.92 29.82 103.4 29.7 103.88C29.58 104.6 29.52 105.08 29.52 105.32C29.52 105.44 29.76 105.5 30.24 105.5C30 105.98 29.88 106.34 29.88 106.58C29.88 106.7 29.88 106.82 29.88 106.94C30 107.06 30.06 107.24 30.06 107.48C30.06 107.72 30 108.02 29.88 108.38C29.88 108.62 29.88 108.86 29.88 109.1C29.88 109.34 29.88 109.46 29.88 109.46C30 109.82 30.06 110.24 30.06 110.72C30.18 111.08 30.3 111.44 30.42 111.8C30.54 111.56 30.6 111.32 30.6 111.08C30.6 110.72 30.66 110.36 30.78 110C31.26 110.24 31.5 110.66 31.5 111.26C31.38 111.62 31.44 112.22 31.68 113.06C31.68 113.78 31.62 114.26 31.5 114.5C31.38 114.74 30.96 114.98 30.24 115.22C30.24 114.74 30.18 114.44 30.06 114.32C30.06 114.8 29.94 115.22 29.7 115.58C29.58 115.82 29.52 116.12 29.52 116.48C29.52 116.96 29.4 117.32 29.16 117.56C28.92 117.32 28.68 117.02 28.44 116.66C28.2 116.9 28.2 117.26 28.44 117.74C29.16 118.94 29.34 120.26 28.98 121.7C28.98 121.7 28.92 121.76 28.8 121.88C28.8 121.88 28.8 121.94 28.8 122.06C28.68 122.18 28.56 122.3 28.44 122.42C28.32 122.54 28.2 122.72 28.08 122.96C27.96 123.08 27.9 123.26 27.9 123.5C27.9 123.62 27.84 123.74 27.72 123.86C27.72 123.86 27.84 124.22 28.08 124.94C28.32 124.58 28.44 124.16 28.44 123.68C28.56 123.2 28.86 122.96 29.34 122.96C29.58 123.44 29.58 123.8 29.34 124.04C29.22 124.28 29.1 124.52 28.98 124.76C28.62 125.36 28.62 125.72 28.98 125.84C29.1 125.96 29.16 126.2 29.16 126.56C28.92 126.56 28.56 126.68 28.08 126.92C28.2 127.04 28.26 127.16 28.26 127.28C28.38 127.4 28.5 127.52 28.62 127.64V127.82C28.5 127.7 28.32 127.58 28.08 127.46C27.84 127.34 27.54 127.22 27.18 127.1V129.26C27.06 129.5 26.94 129.8 26.82 130.16C26.82 130.4 26.7 130.58 26.46 130.7C25.5 131.42 25.14 132.32 25.38 133.4L26.28 132.86C26.4 133.34 26.28 133.76 25.92 134.12C25.56 134.48 25.68 134.78 26.28 135.02L25.74 136.46C25.74 136.7 25.62 137.06 25.38 137.54C25.14 138.38 25.2 139.1 25.56 139.7C25.8 140.54 25.8 141.08 25.56 141.32C25.32 142.04 25.26 142.76 25.38 143.48V144.74C25.38 145.22 25.14 145.46 24.66 145.46C24.3 145.46 24.12 145.58 24.12 145.82L23.58 148.16C23.94 148.52 24.24 148.76 24.48 148.88C24.24 149.12 24.12 149.36 24.12 149.6C24 149.6 23.88 149.6 23.76 149.6C23.76 149.48 23.7 149.42 23.58 149.42C23.46 149.42 23.4 149.48 23.4 149.6C23.16 150.2 23.04 150.8 23.04 151.4C23.16 152 23.22 152.66 23.22 153.38C23.22 153.62 23.16 153.92 23.04 154.28C22.92 154.52 22.74 154.82 22.5 155.18C22.5 155.3 22.44 155.36 22.32 155.36C22.32 155.36 22.32 155.42 22.32 155.54C22.2 155.54 22.14 155.48 22.14 155.36C22.02 155.24 21.84 154.94 21.6 154.46C21.6 154.58 21.54 154.76 21.42 155C21.3 155.12 21.24 155.24 21.24 155.36C21.12 155.6 21.06 155.96 21.06 156.44C21.18 156.68 21.54 156.8 22.14 156.8C22.38 156.92 22.56 157.1 22.68 157.34C22.8 157.58 22.92 157.82 23.04 158.06L22.5 161.66C22.26 161.54 22.02 161.36 21.78 161.12C21.42 161.36 21.36 161.84 21.6 162.56C21.72 162.92 21.78 163.28 21.78 163.64C21.9 164 21.84 164.42 21.6 164.9C21.48 165.14 21.42 165.38 21.42 165.62C21.78 166.1 21.84 166.64 21.6 167.24C21.48 167.72 21.48 168.2 21.6 168.68C21.6 168.68 21.66 168.74 21.78 168.86C21.9 169.46 21.96 170.06 21.96 170.66C22.08 171.26 22.02 171.92 21.78 172.64H21.24C21.12 172.64 20.94 172.64 20.7 172.64C20.58 172.52 20.4 172.46 20.16 172.46C19.8 172.46 19.62 172.28 19.62 171.92C19.5 171.44 19.44 170.84 19.44 170.12C19.32 169.88 19.26 169.58 19.26 169.22C19.26 168.86 19.2 168.56 19.08 168.32C19.08 168.2 18.96 168.14 18.72 168.14C18.48 168.14 18.36 168.26 18.36 168.5C18.36 169.22 18.18 169.76 17.82 170.12C17.22 170.36 17.16 170.72 17.64 171.2C17.64 171.2 17.64 171.26 17.64 171.38C17.76 171.5 17.82 171.62 17.82 171.74V175.7C17.82 175.82 17.76 175.94 17.64 176.06C17.64 176.18 17.64 176.36 17.64 176.6C17.4 176.36 17.22 176.24 17.1 176.24C16.38 175.52 15.84 175.1 15.48 174.98C15.48 174.98 15.42 174.98 15.3 174.98C15.3 174.98 15.24 175.04 15.12 175.16C14.76 176.12 14.28 176.18 13.68 175.34C12.84 174.86 12.3 174.2 12.06 173.36C11.82 172.52 11.64 171.56 11.52 170.48C11.4 169.4 11.34 168.38 11.34 167.42C11.34 166.34 11.34 165.2 11.34 164C11.1 163.28 10.98 162.62 10.98 162.02C11.1 161.54 11.04 161.06 10.8 160.58C10.68 160.1 10.8 159.62 11.16 159.14C11.28 159.14 11.34 158.9 11.34 158.42C11.34 157.82 11.46 157.28 11.7 156.8C12.06 156.2 12.36 155.66 12.6 155.18C12.84 154.7 13.02 154.28 13.14 153.92C13.26 153.56 13.26 153.14 13.14 152.66C13.02 152.18 13.14 151.82 13.5 151.58C13.62 151.46 13.8 150.98 14.04 150.14C14.28 149.66 14.4 149.12 14.4 148.52C14.4 147.92 14.46 147.32 14.58 146.72C14.7 145.76 14.82 144.86 14.94 144.02C15.06 143.06 15.18 142.1 15.3 141.14C15.54 140.06 15.78 138.98 16.02 137.9C16.38 136.82 16.62 135.68 16.74 134.48C16.98 132.56 17.28 130.7 17.64 128.9C18 126.98 18.24 125.12 18.36 123.32C18.6 121.64 18.84 119.9 19.08 118.1C19.32 116.18 19.56 114.38 19.8 112.7C20.04 111.38 20.16 110.12 20.16 108.92C20.28 107.72 20.34 106.52 20.34 105.32C20.46 104 20.52 102.68 20.52 101.36C20.52 100.04 20.58 98.72 20.7 97.4C20.7 95.6 20.7 93.74 20.7 91.82C20.82 89.9 20.94 87.98 21.06 86.06C21.06 85.34 21.06 84.68 21.06 84.08C21.06 83.48 21.06 82.82 21.06 82.1V80.12C21.06 79.88 21 79.58 20.88 79.22C20.88 78.74 20.88 78.26 20.88 77.78C20.88 77.18 20.88 76.64 20.88 76.16C21 75.56 21 75.02 20.88 74.54C20.64 73.7 20.46 72.86 20.34 72.02C20.34 71.06 20.04 70.22 19.44 69.5C19.08 68.9 18.72 68.24 18.36 67.52C18.12 66.68 17.88 65.96 17.64 65.36C17.52 69.56 17.34 71.9 17.1 72.38C16.86 72.74 16.62 72.68 16.38 72.2C16.14 71.6 15.9 70.94 15.66 70.22C15.54 69.86 15.42 69.5 15.3 69.14C15.18 68.66 15 68.18 14.76 67.7C14.4 66.38 13.98 65.18 13.5 64.1C13.14 62.9 12.78 61.64 12.42 60.32C12.3 59.48 12.18 58.7 12.06 57.98C11.94 57.14 11.76 56.3 11.52 55.46C11.4 55.22 11.34 54.98 11.34 54.74C11.34 54.5 11.28 54.26 11.16 54.02L10.62 51.86C10.26 51.14 10.38 50.72 10.98 50.6C12.06 50.24 12.24 49.46 11.52 48.26C11.28 48.02 11.1 47.78 10.98 47.54C10.86 47.3 10.68 47.06 10.44 46.82C10.68 45.98 10.86 45.56 10.98 45.56C11.22 45.44 11.58 45.5 12.06 45.74C12.42 45.86 12.78 45.98 13.14 46.1C13.62 46.22 13.98 46.4 14.22 46.64C14.22 46.76 14.4 46.82 14.76 46.82C15 46.7 15.36 46.64 15.84 46.64C16.2 46.64 16.5 46.58 16.74 46.46C16.86 46.46 16.98 46.46 17.1 46.46C17.22 46.34 17.34 46.28 17.46 46.28H18.72C19.2 46.28 19.62 46.16 19.98 45.92C20.34 45.56 20.7 45.5 21.06 45.74C21.3 45.74 21.54 45.62 21.78 45.38C22.02 44.78 22.38 44.48 22.86 44.48C23.34 44.36 23.76 44.18 24.12 43.94C24.24 43.82 24.42 43.82 24.66 43.94C24.9 44.06 25.14 44.12 25.38 44.12C25.74 44.24 26.1 44.24 26.46 44.12C26.82 43.88 27.18 43.76 27.54 43.76C28.02 43.64 28.5 43.76 28.98 44.12C29.22 44.24 29.46 44.36 29.7 44.48C30.06 44.6 30.3 44.72 30.42 44.84C30.54 44.96 30.78 45.02 31.14 45.02C31.14 44.9 31.08 44.78 30.96 44.66C30.96 44.54 30.96 44.42 30.96 44.3C31.44 44.3 31.86 44.24 32.22 44.12C32.22 44.96 32.52 45.38 33.12 45.38V45.56C33.6 46.04 34.02 46.46 34.38 46.82C34.74 47.18 35.1 47.6 35.46 48.08C35.94 48.68 36.06 49.52 35.82 50.6C35.46 51.08 35.22 51.62 35.1 52.22C35.1 52.7 35.1 53.24 35.1 53.84C35.1 54.32 35.1 54.8 35.1 55.28C35.22 55.76 35.34 56.3 35.46 56.9C35.46 57.38 35.7 57.86 36.18 58.34C36.54 59.06 36.9 59.78 37.26 60.5C37.74 61.1 38.22 61.88 38.7 62.84C38.94 63.08 39.06 63.38 39.06 63.74C39.18 63.98 39.3 64.22 39.42 64.46C39.66 65.18 39.96 65.72 40.32 66.08C40.56 66.56 40.86 67.04 41.22 67.52C41.7 67.88 42.06 68.3 42.3 68.78L46.8 74.36C47.64 75.56 48.48 76.76 49.32 77.96C50.28 79.16 51.18 80.36 52.02 81.56C52.26 81.8 52.5 82.1 52.74 82.46C53.1 82.82 53.4 83.18 53.64 83.54L57.78 89.48C58.5 90.32 59.16 91.22 59.76 92.18C60.48 93.14 61.2 94.04 61.92 94.88C62.16 95.24 62.4 95.6 62.64 95.96C62.88 96.32 63.06 96.62 63.18 96.86C63.66 97.34 64.02 97.76 64.26 98.12C64.86 98.96 65.4 99.74 65.88 100.46C66.48 101.18 67.08 101.9 67.68 102.62C68.4 103.46 69.12 104.3 69.84 105.14C70.56 105.98 71.28 106.82 72 107.66C72.24 108.14 72.54 108.62 72.9 109.1C73.26 109.46 73.56 109.88 73.8 110.36L76.86 114.68C77.34 115.16 77.82 115.76 78.3 116.48C78.66 116.96 79.02 117.56 79.38 118.28C79.74 118.88 80.16 119.48 80.64 120.08C81.24 121.16 81.9 122.12 82.62 122.96C82.98 123.56 83.4 123.5 83.88 122.78C83.88 123.14 83.82 123.56 83.7 124.04C83.7 124.4 83.76 124.7 83.88 124.94C84 125.06 84.12 125.24 84.24 125.48C84.48 125.72 84.66 125.96 84.78 126.2C84.9 126.08 84.96 125.9 84.96 125.66C84.96 125.06 85.08 124.52 85.32 124.04C85.56 123.56 85.8 123.08 86.04 122.6C86.28 122.24 86.28 121.94 86.04 121.7C85.68 121.22 85.68 120.8 86.04 120.44C86.28 120.2 86.46 119.78 86.58 119.18C86.7 118.46 86.64 117.86 86.4 117.38C86.16 117.02 86.1 116.72 86.22 116.48C86.34 116.24 86.46 116.06 86.58 115.94C86.82 115.46 86.88 115.16 86.76 115.04V114.86C87 114.38 87.06 113.9 86.94 113.42C86.94 112.82 86.88 112.28 86.76 111.8C86.76 111.68 86.82 111.62 86.94 111.62C87.06 111.5 87.12 111.38 87.12 111.26V110.54C87.12 110.42 86.94 110.36 86.58 110.36C86.58 110.36 86.34 110.48 85.86 110.72C85.74 110.24 85.86 109.88 86.22 109.64C86.34 109.64 86.4 109.64 86.4 109.64C86.4 109.52 86.4 109.46 86.4 109.46C86.52 108.62 86.64 107.84 86.76 107.12C86.88 106.4 86.94 105.74 86.94 105.14C86.94 104.78 86.88 104.48 86.76 104.24C86.64 103.88 86.46 103.46 86.22 102.98C86.46 102.74 86.7 102.44 86.94 102.08C87.18 101.72 87.36 101.36 87.48 101C87.48 101 87.48 100.7 87.48 100.1C87.72 99.98 87.9 99.86 88.02 99.74C88.14 99.62 88.26 99.5 88.38 99.38C88.02 99.26 87.78 99.02 87.66 98.66C87.9 98.54 88.02 98.54 88.02 98.66C88.14 98.66 88.26 98.6 88.38 98.48C88.86 98.48 89.1 98.36 89.1 98.12C89.1 97.64 88.98 97.28 88.74 97.04C88.62 96.8 88.38 96.68 88.02 96.68C87.42 96.32 87.24 95.9 87.48 95.42V94.52C87.48 94.52 87.42 94.52 87.3 94.52C87.3 94.52 87.3 94.46 87.3 94.34L86.76 96.14C86.64 96.26 86.58 96.44 86.58 96.68C86.58 96.8 86.46 96.8 86.22 96.68C86.1 96.68 85.86 96.86 85.5 97.22C85.62 96.86 85.8 96.2 86.04 95.24V93.98C86.04 93.38 86.04 92.78 86.04 92.18C86.04 91.58 85.98 91.04 85.86 90.56C85.86 89.96 85.92 89.48 86.04 89.12C86.04 89.12 86.16 89 86.4 88.76C86.64 89 86.76 89.18 86.76 89.3C86.88 90.14 86.88 90.98 86.76 91.82C86.76 92.54 86.94 93.32 87.3 94.16C87.66 93.8 87.84 93.62 87.84 93.62C88.08 93.02 88.2 92.42 88.2 91.82C88.2 91.1 88.02 90.44 87.66 89.84C87.3 89.48 87.12 88.94 87.12 88.22C87.24 87.98 87.24 87.74 87.12 87.5C87.12 87.26 87.12 87.08 87.12 86.96C86.88 86.6 86.58 86.3 86.22 86.06C86.1 86.06 86.04 86.12 86.04 86.24C86.04 86.24 85.98 86.24 85.86 86.24C85.98 86 86.04 85.76 86.04 85.52C86.04 85.16 86.1 84.86 86.22 84.62C86.22 84.38 86.22 84.14 86.22 83.9C86.34 83.66 86.28 83.48 86.04 83.36V83C85.92 81.68 85.8 80.48 85.68 79.4C85.56 78.2 85.44 77 85.32 75.8V71.48C85.8 71.36 85.92 71 85.68 70.4C85.56 70.16 85.5 69.8 85.5 69.32C85.5 68.96 85.5 68.6 85.5 68.24C85.5 67.88 85.44 67.46 85.32 66.98C85.32 66.38 85.44 65.96 85.68 65.72C86.04 65.12 86.1 64.64 85.86 64.28C85.74 63.32 85.44 62.06 84.96 60.5C84.96 59.9 84.66 59.72 84.06 59.96C83.94 59.96 83.82 59.9 83.7 59.78C83.58 59.54 83.4 59.36 83.16 59.24C82.92 58.76 82.68 58.28 82.44 57.8C82.2 57.2 81.84 56.78 81.36 56.54C81 56.18 80.7 55.82 80.46 55.46C80.34 54.98 80.16 54.56 79.92 54.2L80.1 54.02C80.34 54.14 80.52 54.26 80.64 54.38C80.88 54.5 81 54.26 81 53.66C81 53.66 81.06 53.66 81.18 53.66C81.42 53.54 81.6 53.48 81.72 53.48C81.96 53.36 82.2 53.3 82.44 53.3C82.8 53.3 83.1 53.24 83.34 53.12C83.94 53.12 84.48 53 84.96 52.76C85.44 52.4 85.98 52.16 86.58 52.04C86.82 51.92 87.12 51.74 87.48 51.5C87.96 51.26 88.38 51.08 88.74 50.96C89.34 50.84 89.76 50.6 90 50.24C90.36 49.76 90.78 49.34 91.26 48.98C91.62 48.74 91.92 48.56 92.16 48.44C92.52 48.2 92.82 48.02 93.06 47.9C93.3 47.78 93.6 47.72 93.96 47.72C94.32 47.72 94.68 47.66 95.04 47.54C95.28 47.54 95.4 47.54 95.4 47.54C95.52 47.42 95.64 47.36 95.76 47.36C96.12 47 96.66 46.58 97.38 46.1C97.86 45.62 98.16 45.44 98.28 45.56C98.76 45.8 99.24 45.8 99.72 45.56C100.32 45.32 100.86 45.26 101.34 45.38C101.46 45.38 101.52 45.44 101.52 45.56C101.64 45.56 101.76 45.56 101.88 45.56C102 45.68 102.12 45.74 102.24 45.74C102.48 45.62 102.66 45.62 102.78 45.74C103.02 45.86 103.32 45.98 103.68 46.1C104.04 46.1 104.34 46.16 104.58 46.28C104.82 46.4 104.94 46.46 104.94 46.46C105.06 46.34 105.18 46.04 105.3 45.56C105.42 46.4 105.6 47 105.84 47.36C105.96 47.48 106.02 47.6 106.02 47.72C106.02 47.84 106.08 47.96 106.2 48.08C106.68 48.32 106.74 48.86 106.38 49.7C106.14 49.94 105.9 50.24 105.66 50.6C105.54 50.84 105.36 51.02 105.12 51.14C105 51.38 104.94 51.62 104.94 51.86C104.7 52.1 104.58 52.34 104.58 52.58L104.4 52.76C104.28 53.12 104.22 53.54 104.22 54.02C104.22 54.38 104.16 54.74 104.04 55.1C104.04 55.22 103.98 55.4 103.86 55.64C103.74 55.88 103.68 56.18 103.68 56.54C103.68 56.66 103.68 56.84 103.68 57.08C103.8 57.2 103.8 57.38 103.68 57.62C103.56 58.22 103.44 58.88 103.32 59.6C103.2 60.2 103.02 60.86 102.78 61.58C102.78 61.82 102.66 62.06 102.42 62.3C102.18 62.42 102 62.54 101.88 62.66C101.52 62.78 101.34 63.14 101.34 63.74C101.34 64.22 101.34 64.76 101.34 65.36C101.34 65.96 101.28 66.56 101.16 67.16C101.04 67.64 100.98 68.12 100.98 68.6C100.98 69.08 100.92 69.62 100.8 70.22C100.8 70.58 100.8 70.94 100.8 71.3C100.92 71.54 100.92 71.9 100.8 72.38C100.68 72.86 100.68 73.4 100.8 74C100.92 74.6 100.86 75.2 100.62 75.8C100.5 76.64 100.5 77.48 100.62 78.32C100.86 79.04 100.86 79.82 100.62 80.66L99.9 83.18C99.9 83.54 100.02 83.72 100.26 83.72L101.16 84.08C101.04 84.44 100.86 84.8 100.62 85.16C100.5 85.52 100.38 86 100.26 86.6C100.02 87.32 100.38 87.56 101.34 87.32V88.22C100.26 87.5 99.84 87.8 100.08 89.12C100.2 89.24 100.38 89.3 100.62 89.3C100.86 89.18 100.92 89.36 100.8 89.84C100.32 89.72 99.96 89.96 99.72 90.56C99.36 91.4 98.88 91.52 98.28 90.92C97.8 90.68 97.5 90.74 97.38 91.1C97.38 91.1 97.26 91.22 97.02 91.46C96.78 91.7 96.66 91.94 96.66 92.18C96.66 92.54 96.78 92.84 97.02 93.08C97.26 92.96 97.38 92.84 97.38 92.72C97.5 92.48 97.62 92.3 97.74 92.18C97.86 92.06 97.92 92 97.92 92C98.04 91.88 98.16 91.76 98.28 91.64V93.26C98.4 93.14 98.64 93.08 99 93.08V93.8C99.12 94.28 99.54 94.52 100.26 94.52C100.38 94.52 100.56 94.22 100.8 93.62C100.8 93.38 100.8 93.14 100.8 92.9C100.8 92.54 100.8 92.3 100.8 92.18H100.98C100.98 92.3 100.98 92.42 100.98 92.54C101.1 92.54 101.1 92.66 100.98 92.9C100.86 93.38 100.8 93.92 100.8 94.52C100.8 95 100.68 95.48 100.44 95.96C100.32 96.32 100.26 96.68 100.26 97.04C100.26 97.4 100.26 97.82 100.26 98.3C100.14 98.3 100.02 98.3 99.9 98.3C99.78 98.18 99.6 98.12 99.36 98.12C99.24 98.36 99.18 98.66 99.18 99.02C99.18 99.38 99.18 99.68 99.18 99.92C98.7 100.04 98.4 100.22 98.28 100.46C98.28 100.58 98.34 101.06 98.46 101.9L99 101.54C99.12 101.54 99.24 101.6 99.36 101.72C99.48 101.72 99.66 101.72 99.9 101.72C99.42 101.96 99.12 102.14 99 102.26C99.12 102.74 99.06 103.1 98.82 103.34C98.82 103.58 98.76 103.76 98.64 103.88L98.1 105.5C97.98 105.86 97.86 106.22 97.74 106.58C97.62 106.94 97.62 107.24 97.74 107.48C97.98 108.32 97.8 109.16 97.2 110C96.96 110.36 97.2 110.84 97.92 111.44L97.38 112.16C97.26 112.52 97.14 112.94 97.02 113.42C96.9 113.78 96.72 114.14 96.48 114.5C96.36 114.74 96.24 114.92 96.12 115.04C96 115.16 96 115.34 96.12 115.58C96.12 116.3 96.18 116.84 96.3 117.2C96.54 117.68 96.54 118.1 96.3 118.46C96.18 118.58 96.12 118.76 96.12 119C96.24 119.12 96.24 119.3 96.12 119.54C96.12 119.78 96 120.02 95.76 120.26C95.76 120.38 95.7 120.44 95.58 120.44C95.7 120.92 95.64 121.34 95.4 121.7C95.28 121.94 95.1 122.24 94.86 122.6C94.86 122.84 94.92 123.02 95.04 123.14C95.28 123.62 95.58 124.1 95.94 124.58C95.46 124.94 95.22 125.36 95.22 125.84C95.34 126.32 95.4 126.8 95.4 127.28C95.52 127.76 95.46 128.24 95.22 128.72C95.1 129.08 94.92 129.44 94.68 129.8C94.56 130.16 94.74 130.52 95.22 130.88C95.34 131 95.34 131.18 95.22 131.42C95.22 131.66 95.22 131.9 95.22 132.14C94.98 132.02 94.74 131.96 94.5 131.96C94.14 131.96 93.96 132.02 93.96 132.14C93.96 132.74 93.66 133.1 93.06 133.22C93.66 134.18 94.32 134.54 95.04 134.3C95.04 134.42 95.04 134.6 95.04 134.84C95.04 134.96 95.04 135.14 95.04 135.38L94.5 138.62C94.5 138.74 94.5 138.98 94.5 139.34C94.5 139.58 94.56 139.82 94.68 140.06C95.04 140.54 95.4 141.08 95.76 141.68C96.12 142.16 96.42 142.7 96.66 143.3C96.9 143.78 97.14 144.32 97.38 144.92C97.74 145.52 98.1 146.06 98.46 146.54C98.58 146.78 98.7 147.08 98.82 147.44C99.06 147.68 99.24 147.98 99.36 148.34C99.96 148.82 100.44 149.3 100.8 149.78C101.28 150.26 101.58 150.68 101.7 151.04C101.94 151.52 102.12 151.94 102.24 152.3C102.36 152.66 102.42 152.96 102.42 153.2C102.66 153.44 102.78 153.8 102.78 154.28C103.02 154.76 103.14 155.18 103.14 155.54C103.26 155.78 103.38 156.08 103.5 156.44ZM92.16 122.06H92.34C92.94 121.7 93.18 121.1 93.06 120.26V119.36C93.54 119 93.54 118.4 93.06 117.56C92.82 117.2 92.58 117.2 92.34 117.56C92.34 117.68 92.28 117.8 92.16 117.92C92.04 118.04 91.92 118.22 91.8 118.46C91.8 118.46 91.74 118.46 91.62 118.46C91.62 118.46 91.56 118.4 91.44 118.28C91.56 118.16 91.56 118.04 91.44 117.92C91.44 117.8 91.5 117.68 91.62 117.56C91.98 117.08 92.16 116.6 92.16 116.12C92.28 115.52 92.34 114.98 92.34 114.5C92.34 114.26 92.34 113.96 92.34 113.6C92.46 113.24 92.7 113.12 93.06 113.24H93.24C93.36 112.76 93.48 112.28 93.6 111.8C93.72 111.2 93.84 110.66 93.96 110.18C93.96 109.58 93.9 109.16 93.78 108.92C93.66 108.68 93.6 108.44 93.6 108.2C93.6 107.84 93.48 107.6 93.24 107.48C93.12 107.24 92.76 107.42 92.16 108.02L91.98 108.38C92.1 107.9 92.16 107.48 92.16 107.12C92.28 106.76 92.4 106.4 92.52 106.04H92.34C91.98 106.16 91.56 106.46 91.08 106.94C90.96 106.94 90.9 106.88 90.9 106.76C90.9 106.52 90.9 106.34 90.9 106.22C90.9 105.98 90.9 105.74 90.9 105.5L90.72 104.78C90.48 104.78 90.24 104.9 90 105.14C89.76 105.38 89.46 105.68 89.1 106.04C88.74 106.4 88.44 106.76 88.2 107.12C87.96 107.48 87.96 107.9 88.2 108.38C88.44 108.74 88.8 108.92 89.28 108.92C89.64 108.92 89.7 109.1 89.46 109.46V110C89.34 110.72 89.22 111.44 89.1 112.16C89.1 112.76 89.04 113.42 88.92 114.14L88.38 115.22C88.14 115.7 88.02 116 88.02 116.12C87.54 116.36 87.24 116.48 87.12 116.48C87.12 116.72 87.12 117.02 87.12 117.38C87.12 117.62 87.18 117.86 87.3 118.1C87.42 117.86 87.48 117.68 87.48 117.56C87.6 117.32 87.72 117.14 87.84 117.02H88.02C87.9 117.26 87.84 117.56 87.84 117.92C87.96 118.28 87.9 118.58 87.66 118.82C87.42 119.42 87.24 120.02 87.12 120.62C87.12 121.22 87.12 121.82 87.12 122.42C87.12 123.38 86.94 124.22 86.58 124.94C86.58 125.06 86.52 125.24 86.4 125.48C86.28 125.6 86.22 125.78 86.22 126.02C86.1 126.38 86.04 126.74 86.04 127.1C86.16 127.46 86.22 127.76 86.22 128C86.22 128.12 86.22 128.18 86.22 128.18C86.34 128.18 86.4 128.24 86.4 128.36C86.52 128.48 86.64 128.66 86.76 128.9C86.88 129.02 86.94 129.2 86.94 129.44C87.06 129.68 87.12 129.92 87.12 130.16C87.24 130.4 87.42 130.58 87.66 130.7C87.9 130.94 88.08 131.18 88.2 131.42C88.44 132.14 88.68 132.62 88.92 132.86C88.92 133.1 89.1 133.4 89.46 133.76C89.58 133.28 89.64 132.92 89.64 132.68C89.64 132.32 89.7 132.02 89.82 131.78C89.94 131.9 90 132.08 90 132.32V134.48C90 134.6 90.06 134.78 90.18 135.02C90.3 135.14 90.36 135.32 90.36 135.56C90.84 135.2 91.44 135.38 92.16 136.1C92.52 134.9 92.4 133.88 91.8 133.04C91.68 132.92 91.62 132.68 91.62 132.32H91.8C91.8 132.32 91.8 132.38 91.8 132.5C91.92 132.5 91.98 132.5 91.98 132.5H92.34C92.34 132.02 92.28 131.54 92.16 131.06C92.16 130.46 92.22 129.92 92.34 129.44C92.46 128.84 92.58 128.24 92.7 127.64C92.82 127.04 92.94 126.5 93.06 126.02C93.3 125.78 93.54 125.72 93.78 125.84C94.14 125.96 94.32 125.78 94.32 125.3C94.32 124.58 94.02 124.22 93.42 124.22C93.3 124.34 93.24 124.46 93.24 124.58C93.24 124.7 93.18 124.88 93.06 125.12C93.06 124.88 93 124.7 92.88 124.58C92.76 124.46 92.76 124.34 92.88 124.22C92.88 123.14 92.64 122.42 92.16 122.06ZM94.68 91.46C94.56 91.46 94.38 91.58 94.14 91.82C94.02 91.94 93.96 92.12 93.96 92.36C93.96 92.6 93.9 92.84 93.78 93.08C93.66 93.2 93.6 93.38 93.6 93.62C93.6 93.86 93.54 94.1 93.42 94.34C93.42 94.58 93.36 94.82 93.24 95.06C93.24 95.18 93.24 95.36 93.24 95.6C93.12 96.08 93 96.56 92.88 97.04C92.76 97.4 92.82 97.88 93.06 98.48C93.06 98.36 93.18 98.3 93.42 98.3C93.42 98.66 93.42 99.02 93.42 99.38C93.54 99.62 93.54 99.86 93.42 100.1C93.18 100.58 93.06 101.18 93.06 101.9C93.18 102.02 93.18 102.2 93.06 102.44C93.06 102.56 93.06 102.68 93.06 102.8C92.58 103.64 92.4 104.6 92.52 105.68C92.88 105.32 93.18 104.9 93.42 104.42C93.42 103.7 93.6 103.04 93.96 102.44C94.32 101.84 94.44 101.24 94.32 100.64V96.68C94.44 96.32 94.5 95.96 94.5 95.6C94.5 95.24 94.56 94.88 94.68 94.52C94.8 94.04 94.86 93.56 94.86 93.08C94.98 92.48 94.92 91.94 94.68 91.46ZM87.12 76.52C86.88 76.76 86.76 76.94 86.76 77.06C86.76 77.66 86.7 78.32 86.58 79.04C86.58 79.64 86.58 80.24 86.58 80.84V81.56C86.58 82.16 86.64 82.52 86.76 82.64C86.76 82.64 87 82.76 87.48 83C87.48 82.88 87.48 82.82 87.48 82.82C87.6 82.7 87.66 82.58 87.66 82.46C87.78 81.86 87.84 81.32 87.84 80.84C87.84 80.24 87.9 79.7 88.02 79.22C88.02 78.86 87.96 78.68 87.84 78.68C87.48 78.56 87.3 78.38 87.3 78.14C87.3 77.78 87.24 77.54 87.12 77.42V76.52ZM25.38 93.44C25.38 93.68 25.32 93.8 25.2 93.8C25.2 93.92 25.14 94.1 25.02 94.34C25.02 94.46 25.02 94.64 25.02 94.88V97.22C25.02 97.46 25.08 97.64 25.2 97.76C25.8 98.24 26.16 98.06 26.28 97.22C26.4 97.22 26.58 97.1 26.82 96.86C27.06 96.74 27.18 96.5 27.18 96.14C27.3 95.66 27.3 95.36 27.18 95.24L25.38 93.44ZM90.72 98.12C90.6 98.24 90.42 98.3 90.18 98.3C90.06 98.3 90 98.3 90 98.3C89.88 98.78 89.82 99.32 89.82 99.92C89.82 100.52 89.7 101 89.46 101.36C89.34 101.48 89.28 101.6 89.28 101.72C89.4 101.84 89.46 102.02 89.46 102.26L90 101.9C90 101.66 90.06 101.48 90.18 101.36C90.3 101.24 90.36 101.12 90.36 101C90.6 100.52 90.78 100.1 90.9 99.74C91.02 99.26 90.96 98.72 90.72 98.12ZM97.92 95.6C97.68 96.44 97.86 97.04 98.46 97.4C98.94 97.76 99.18 97.7 99.18 97.22C99.3 96.74 99.48 96.5 99.72 96.5C99.6 95.66 99.36 95.36 99 95.6C98.64 95.72 98.28 95.72 97.92 95.6ZM88.56 85.52C88.32 86.24 88.2 87.02 88.2 87.86C88.2 88.58 88.38 89.06 88.74 89.3L89.28 85.7C88.92 85.7 88.68 85.64 88.56 85.52ZM95.22 88.04H95.4C95.4 87.68 95.28 87.26 95.04 86.78C94.92 86.9 94.74 87.02 94.5 87.14C94.38 87.26 94.32 87.38 94.32 87.5C94.32 87.98 94.38 88.46 94.5 88.94C94.62 89.3 94.74 89.66 94.86 90.02C94.98 90.02 95.1 90.02 95.22 90.02L95.4 89.84C95.4 89 95.34 88.4 95.22 88.04ZM97.38 74.36C97.74 73.4 97.8 72.62 97.56 72.02C97.44 71.78 97.32 71.66 97.2 71.66C97.08 71.66 96.9 71.6 96.66 71.48C96.66 71.72 96.6 71.96 96.48 72.2C96.48 72.32 96.48 72.44 96.48 72.56C96.6 72.8 96.72 73.04 96.84 73.28C97.08 73.52 97.26 73.88 97.38 74.36ZM27.36 86.06V88.58C28.2 88.1 28.62 87.8 28.62 87.68C28.62 87.44 28.2 86.9 27.36 86.06ZM98.46 81.2C98.22 81.32 98.04 81.74 97.92 82.46C97.92 83.18 97.98 83.78 98.1 84.26C99.06 83.3 99.18 82.28 98.46 81.2ZM91.08 96.32C91.08 95.96 90.9 95.66 90.54 95.42C90.3 95.18 90.06 95.12 89.82 95.24C89.7 95.36 89.58 95.54 89.46 95.78C89.34 96.02 89.22 96.26 89.1 96.5C89.34 96.74 89.46 96.8 89.46 96.68C90.06 96.32 90.6 96.2 91.08 96.32ZM55.44 112.52C55.32 113 55.44 113.36 55.8 113.6C56.16 113.84 56.52 113.96 56.88 113.96C56.88 113.36 56.7 113 56.34 112.88C55.98 112.76 55.68 112.64 55.44 112.52ZM65.34 126.92C65.46 127.04 65.58 127.16 65.7 127.28C65.82 127.28 65.94 127.4 66.06 127.64C66.06 127.76 66.18 127.82 66.42 127.82C66.42 127.7 66.42 127.64 66.42 127.64C66.54 127.52 66.6 127.4 66.6 127.28C66.48 127.04 66.3 126.86 66.06 126.74C65.82 126.62 65.58 126.68 65.34 126.92ZM94.14 122.42C94.02 122.18 93.84 122.06 93.6 122.06C93.48 121.94 93.36 121.82 93.24 121.7C93.12 121.82 93.06 122 93.06 122.24C93.06 122.48 93.18 122.72 93.42 122.96C93.42 122.96 93.48 122.9 93.6 122.78C93.84 122.66 94.02 122.54 94.14 122.42ZM96.66 111.62C96.3 111.98 96.18 112.52 96.3 113.24C96.66 113 96.78 112.76 96.66 112.52C96.66 112.16 96.66 111.86 96.66 111.62ZM20.88 169.4C20.88 168.56 20.64 168.14 20.16 168.14C20.16 168.74 20.4 169.16 20.88 169.4ZM86.4 69.14L86.94 70.76C87.18 70.16 87 69.62 86.4 69.14ZM23.04 125.3C23.16 124.82 23.22 124.52 23.22 124.4C23.34 124.28 23.4 124.22 23.4 124.22C23.4 124.22 23.22 124.04 22.86 123.68L22.5 124.04C22.74 124.28 22.92 124.7 23.04 125.3ZM94.68 119C94.92 119.12 95.1 119.18 95.22 119.18C95.46 119.18 95.64 119.24 95.76 119.36C95.76 119.24 95.76 119.18 95.76 119.18C95.88 119.18 95.94 119.18 95.94 119.18C95.82 119.06 95.7 118.94 95.58 118.82C95.58 118.58 95.52 118.46 95.4 118.46C95.28 118.34 95.16 118.4 95.04 118.64C95.04 118.76 94.92 118.88 94.68 119ZM27.18 143.12C26.94 143.36 26.7 143.48 26.46 143.48C26.46 143.24 26.4 143 26.28 142.76C26.16 142.4 26.16 142.04 26.28 141.68C26.52 141.32 26.7 141.02 26.82 140.78C27.06 140.42 27.24 140.18 27.36 140.06C27.12 140.78 27.3 141.2 27.9 141.32L27.18 143.12ZM30.6 119.9C31.2 120.5 31.38 121.28 31.14 122.24C30.9 123.2 30.48 123.8 29.88 124.04C30 123.32 30.12 122.66 30.24 122.06C30.36 121.34 30.48 120.62 30.6 119.9ZM29.16 129.98C29.64 129.02 29.94 128.36 30.06 128C30.06 128 30.12 128 30.24 128V129.26C30.12 129.98 29.94 130.52 29.7 130.88C29.7 130.76 29.64 130.64 29.52 130.52C29.4 130.4 29.28 130.22 29.16 129.98ZM30.42 97.22C30.66 96.98 30.9 96.62 31.14 96.14C31.26 95.78 31.44 95.36 31.68 94.88L32.22 95.42C32.34 95.54 32.4 95.78 32.4 96.14H32.04C31.68 96.5 31.14 96.86 30.42 97.22ZM27.9 129.08C28.14 129.92 28.2 130.46 28.08 130.7C28.08 131.18 27.9 131.78 27.54 132.5C27.54 132.62 27.42 132.68 27.18 132.68V132.32C27.18 132.08 27.24 131.84 27.36 131.6C27.48 131.24 27.6 131 27.72 130.88V129.26C27.84 129.26 27.9 129.26 27.9 129.26C27.9 129.14 27.9 129.08 27.9 129.08ZM53.82 116.12C54.3 116.6 54.42 117.2 54.18 117.92C53.58 117.44 53.46 116.84 53.82 116.12ZM90.54 119.72C90.3 120.2 90.18 120.44 90.18 120.44C89.94 121.16 90.18 121.76 90.9 122.24C91.14 122.36 91.5 122.66 91.98 123.14C91.74 123.38 91.5 123.62 91.26 123.86C91.02 123.98 91.02 124.34 91.26 124.94C91.02 124.82 90.72 124.76 90.36 124.76C90.12 125.48 90 126.08 90 126.56H89.82C89.82 125.96 89.82 125.42 89.82 124.94C89.82 124.34 89.88 123.68 90 122.96V121.34C89.88 120.38 89.82 119.36 89.82 118.28C89.82 117.08 89.82 115.94 89.82 114.86C89.82 114.02 89.94 113 90.18 111.8C90.18 111.56 90.36 111.44 90.72 111.44C90.84 111.8 90.9 112.28 90.9 112.88C90.9 113.84 90.84 114.56 90.72 115.04V117.2C90.6 117.44 90.54 117.68 90.54 117.92C90.54 118.04 90.48 118.22 90.36 118.46C90 119.18 90.06 119.6 90.54 119.72Z" fill="#FFD700"/>
<path d="M164.56 213.94C165.28 213.7 165.7 213.52 165.82 213.4C165.94 213.16 166 212.8 166 212.32C165.4 211.96 165.4 211.66 166 211.42C166.24 210.7 166.42 209.98 166.54 209.26C166.66 208.54 166.78 207.76 166.9 206.92C167.02 206.44 167.02 205.96 166.9 205.48C166.9 204.88 166.96 204.34 167.08 203.86C167.08 203.02 167.14 202.18 167.26 201.34C167.5 200.5 167.62 199.78 167.62 199.18C167.74 198.58 167.86 198.1 167.98 197.74C168.22 197.38 168.34 196.96 168.34 196.48C168.46 195.4 168.46 194.26 168.34 193.06C168.34 191.86 168.34 190.72 168.34 189.64C168.34 188.92 168.34 188.26 168.34 187.66C168.34 187.06 168.4 186.52 168.52 186.04C168.52 185.56 168.52 185.2 168.52 184.96C168.64 184.72 168.7 184.54 168.7 184.42C169.18 183.58 169.48 182.62 169.6 181.54V180.82C169.48 180.22 169.42 179.68 169.42 179.2C169.42 178.6 169.48 178.06 169.6 177.58C169.6 177.46 169.54 177.4 169.42 177.4C168.94 177.04 168.64 176.56 168.52 175.96C168.52 175.36 168.52 174.82 168.52 174.34V170.92C168.52 170.56 168.58 170.32 168.7 170.2C168.82 169.96 168.94 169.66 169.06 169.3C169.18 168.94 169 168.58 168.52 168.22V168.04C168.76 167.44 168.76 166.9 168.52 166.42C168.4 165.94 168.28 165.52 168.16 165.16C168.04 164.68 167.98 164.2 167.98 163.72C167.98 163.12 167.86 162.58 167.62 162.1C167.38 161.62 167.26 161.26 167.26 161.02C167.38 160.66 167.32 160.3 167.08 159.94C167.08 159.46 167.02 159.16 166.9 159.04C166.9 157.96 166.66 157.9 166.18 158.86V156.16C166.18 155.2 165.82 154.36 165.1 153.64C164.98 153.52 164.92 153.34 164.92 153.1C164.8 152.02 164.74 151 164.74 150.04C164.74 149.08 164.74 148.06 164.74 146.98V146.8C164.86 145.96 164.68 145.54 164.2 145.54C164.08 144.82 164.02 144.1 164.02 143.38C164.02 142.66 163.96 141.94 163.84 141.22C163.72 140.5 163.6 139.78 163.48 139.06C163.48 138.34 163.42 137.74 163.3 137.26C163.3 137.02 163.3 136.78 163.3 136.54C163.42 136.18 163.48 135.94 163.48 135.82C163.48 135.58 163.42 135.34 163.3 135.1C163.3 134.86 163.3 134.68 163.3 134.56L163.12 133.66C163 133.06 162.88 132.46 162.76 131.86C162.76 131.14 162.64 130.54 162.4 130.06C162.4 129.34 162.22 128.98 161.86 128.98C161.14 128.62 160.42 128.26 159.7 127.9C159.1 127.42 158.38 126.94 157.54 126.46L156.46 125.74C156.22 125.26 155.92 124.78 155.56 124.3C155.2 123.7 154.72 123.22 154.12 122.86C154 122.86 153.82 122.74 153.58 122.5C153.46 122.38 153.4 122.08 153.4 121.6C153.4 121.24 153.1 120.76 152.5 120.16C152.38 120.16 152.32 120.04 152.32 119.8C152.32 119.8 152.38 119.8 152.5 119.8C152.62 119.68 152.74 119.62 152.86 119.62C153.1 119.62 153.28 119.68 153.4 119.8C153.64 119.8 153.82 119.8 153.94 119.8C154.42 119.8 154.78 119.8 155.02 119.8C155.26 119.8 155.5 119.8 155.74 119.8H156.82C157.06 119.8 157.18 119.8 157.18 119.8C157.54 119.56 157.84 119.38 158.08 119.26C158.44 119.02 158.74 118.84 158.98 118.72C159.34 118.48 159.46 118.24 159.34 118C159.34 117.76 159.34 117.58 159.34 117.46C159.22 116.86 159.1 116.38 158.98 116.02C158.86 115.66 158.86 115.36 158.98 115.12C159.1 114.16 159.04 113.5 158.8 113.14C158.56 112.66 158.26 112.3 157.9 112.06C157.9 112.06 157.84 112.06 157.72 112.06C157.6 111.94 157.54 111.82 157.54 111.7H157.36C157.96 111.46 158.14 111.04 157.9 110.44H158.08C158.32 110.56 158.5 110.62 158.62 110.62C158.74 110.62 158.86 110.74 158.98 110.98C159.58 111.22 159.94 111.1 160.06 110.62C160.78 110.14 161.44 109.72 162.04 109.36C162.76 108.88 163.54 108.58 164.38 108.46L164.74 108.1C164.98 108.46 165.52 108.58 166.36 108.46C166.6 108.46 166.78 108.64 166.9 109C167.02 109.24 167.26 109.48 167.62 109.72C167.74 109.72 167.8 109.78 167.8 109.9C167.8 110.02 167.86 110.08 167.98 110.08C168.46 110.44 168.76 110.56 168.88 110.44C169.12 110.44 169.3 110.32 169.42 110.08C169.54 109.84 169.66 109.66 169.78 109.54C169.9 109.66 169.96 109.96 169.96 110.44C170.08 110.92 170.32 111.22 170.68 111.34C170.92 111.1 171.1 110.86 171.22 110.62C171.46 110.38 171.7 110.26 171.94 110.26C172.42 110.14 172.84 110.14 173.2 110.26C173.68 110.26 174.16 110.08 174.64 109.72C174.64 109.72 174.7 109.72 174.82 109.72C174.94 109.72 175 109.78 175 109.9C175.6 110.02 176.14 110.26 176.62 110.62C177.22 110.98 177.76 111.34 178.24 111.7C178.96 112.06 179.62 112.42 180.22 112.78C180.94 113.14 181.72 113.44 182.56 113.68H182.74C182.98 114.4 183.28 114.7 183.64 114.58C184 114.46 184.42 114.4 184.9 114.4H186.16C186.28 114.64 186.4 114.7 186.52 114.58C186.76 114.34 186.94 114.16 187.06 114.04C187.3 113.68 187.54 113.5 187.78 113.5C188.02 113.5 188.32 113.5 188.68 113.5C189.04 113.62 189.1 113.92 188.86 114.4C188.5 114.88 188.38 115.18 188.5 115.3C188.62 115.42 188.74 115.6 188.86 115.84C188.98 115.84 189.04 115.9 189.04 116.02C188.56 116.14 188.08 116.32 187.6 116.56C187.24 116.8 186.82 117.04 186.34 117.28V117.46C186.94 117.58 187.54 117.88 188.14 118.36C188.74 118.72 189.28 118.9 189.76 118.9C190.36 118.78 190.9 118.84 191.38 119.08C191.98 119.32 192.64 119.44 193.36 119.44C193.72 119.68 194.2 119.56 194.8 119.08C195.4 118.96 195.88 119.02 196.24 119.26C196.6 119.38 196.96 119.5 197.32 119.62C197.68 119.74 197.98 119.8 198.22 119.8C198.58 119.8 198.88 119.86 199.12 119.98C199.36 120.1 199.6 120.16 199.84 120.16C200.2 120.16 200.44 120.28 200.56 120.52C200.68 120.52 200.86 120.58 201.1 120.7C201.34 120.7 201.52 120.64 201.64 120.52C202.84 120.52 203.98 120.7 205.06 121.06C206.14 121.18 207.04 121.6 207.76 122.32C208 122.44 208.42 122.5 209.02 122.5C209.62 122.62 210.04 122.68 210.28 122.68C210.52 122.56 210.82 122.56 211.18 122.68C211.42 122.68 211.66 122.74 211.9 122.86C212.14 122.98 212.38 123.1 212.62 123.22C212.74 123.22 212.8 123.28 212.8 123.4C212.92 123.52 213.04 123.52 213.16 123.4C213.76 123.16 214.18 123.22 214.42 123.58C214.78 123.82 215.08 124.06 215.32 124.3C215.56 124.42 215.74 124.48 215.86 124.48C216.1 124.48 216.28 124.54 216.4 124.66C216.88 124.66 217.36 124.72 217.84 124.84C218.44 124.84 218.98 124.84 219.46 124.84C219.7 124.96 219.94 125.02 220.18 125.02C220.54 125.02 220.78 125.14 220.9 125.38L224.14 127.36C224.5 127.36 224.92 127.6 225.4 128.08C226.36 128.44 227.26 128.8 228.1 129.16C229.06 129.52 229.96 130 230.8 130.6C231.76 131.08 232.6 131.68 233.32 132.4C234.04 133.12 234.82 133.84 235.66 134.56C236.26 135.04 236.86 135.58 237.46 136.18C238.18 136.78 238.78 137.38 239.26 137.98C239.86 138.82 240.4 139.66 240.88 140.5C241.36 141.22 241.84 141.94 242.32 142.66C242.8 143.14 243.22 143.74 243.58 144.46C243.94 145.18 244.3 145.96 244.66 146.8C244.9 147.16 245.08 147.64 245.2 148.24C245.44 148.72 245.68 149.26 245.92 149.86C246.16 150.34 246.34 150.82 246.46 151.3C246.7 151.78 246.88 152.32 247 152.92C247.24 153.88 247.36 154.96 247.36 156.16C247.84 157.72 248.26 159.22 248.62 160.66C248.74 160.9 248.74 161.26 248.62 161.74C248.62 162.1 248.62 162.4 248.62 162.64C248.62 163.36 248.62 164.08 248.62 164.8C248.62 165.52 248.62 166.24 248.62 166.96V167.86C248.86 168.22 248.86 168.7 248.62 169.3C248.5 169.78 248.44 170.2 248.44 170.56C247.72 170.56 247.24 170.86 247 171.46C246.76 172.06 246.52 172.72 246.28 173.44C245.68 174.64 245.26 176.02 245.02 177.58L244.12 179.02C243.76 179.98 243.34 180.94 242.86 181.9C242.5 182.74 242.2 183.64 241.96 184.6C241.6 185.08 241.3 185.68 241.06 186.4C240.94 187 240.76 187.6 240.52 188.2C240.52 188.56 240.46 188.86 240.34 189.1C240.34 189.34 240.28 189.64 240.16 190C240.16 190.12 240.1 190.24 239.98 190.36C240.22 190.96 240.22 191.44 239.98 191.8C239.86 192.04 239.68 192.28 239.44 192.52C239.32 193 239.14 193.42 238.9 193.78C238.78 194.14 238.78 194.5 238.9 194.86C239.02 195.1 239.02 195.4 238.9 195.76C238.78 196 238.66 196.24 238.54 196.48C238.42 196.84 238.24 197.2 238 197.56C237.76 197.8 237.52 198.1 237.28 198.46C237.16 198.82 236.98 199.18 236.74 199.54C236.62 199.78 236.44 200.02 236.2 200.26C235.96 200.98 235.6 201.64 235.12 202.24C234.76 202.72 234.4 203.2 234.04 203.68C233.8 204.16 233.5 204.64 233.14 205.12C232.78 205.6 232.48 206.14 232.24 206.74C231.76 207.22 231.28 207.82 230.8 208.54C230.44 209.14 229.96 209.56 229.36 209.8C229.24 209.92 229.12 210.1 229 210.34C228.88 210.46 228.76 210.64 228.64 210.88C228.64 210.88 228.58 210.88 228.46 210.88C228.46 210.76 228.46 210.64 228.46 210.52L228.64 209.8C228.64 209.8 228.58 209.8 228.46 209.8C228.46 209.8 228.46 209.74 228.46 209.62C227.98 209.98 227.56 210.34 227.2 210.7C226.96 210.94 226.6 211.18 226.12 211.42V211.24C226.24 211.12 226.36 211 226.48 210.88C226.6 210.64 226.78 210.46 227.02 210.34C227.38 209.98 227.8 209.62 228.28 209.26C228.76 208.9 229.12 208.48 229.36 208C229.72 207.64 230.02 207.34 230.26 207.1C230.5 206.74 230.68 206.2 230.8 205.48C230.8 205.24 230.92 205.06 231.16 204.94C231.4 204.7 231.58 204.46 231.7 204.22C232.06 203.86 232.06 203.5 231.7 203.14C231.7 202.78 231.82 202.54 232.06 202.42C232.42 202.3 232.48 202.06 232.24 201.7C232.12 201.82 231.94 201.94 231.7 202.06C231.58 202.18 231.46 202.48 231.34 202.96C231.34 203.2 231.16 203.44 230.8 203.68C230.68 203.8 230.44 203.98 230.08 204.22C229.84 204.34 229.6 204.58 229.36 204.94C229.36 204.94 229.24 205.06 229 205.3C228.04 206.02 227.44 207.22 227.2 208.9C227.2 209.26 227.14 209.56 227.02 209.8C226.66 209.92 226.3 209.98 225.94 209.98C225.34 210.58 224.74 210.94 224.14 211.06C223.78 211.42 223.78 211.9 224.14 212.5C223.66 212.26 223.3 212.38 223.06 212.86C222.82 213.34 222.46 213.7 221.98 213.94C221.74 214.06 221.62 214.18 221.62 214.3C221.86 214.78 221.8 215.14 221.44 215.38C221.2 215.62 221.02 215.92 220.9 216.28C220.66 216.76 220.42 217.12 220.18 217.36C220.06 217.36 220 217.42 220 217.54C220 217.66 220 217.72 220 217.72C219.52 218.2 218.98 218.8 218.38 219.52C217.78 220.12 217.18 220.6 216.58 220.96L216.4 221.14C216.16 221.62 215.92 221.92 215.68 222.04C215.56 222.16 215.38 222.28 215.14 222.4C214.9 222.52 214.66 222.88 214.42 223.48C214.42 223.48 214.42 223.54 214.42 223.66C214.42 223.66 214.36 223.66 214.24 223.66C213.76 223.9 213.22 224.2 212.62 224.56C212.02 224.8 211.42 225.16 210.82 225.64C210.58 225.76 210.34 225.94 210.1 226.18C210.1 225.82 210.16 225.52 210.28 225.28C209.8 225.04 209.32 225.4 208.84 226.36C209.2 226.36 209.44 226.42 209.56 226.54C209.32 226.78 209.08 227.02 208.84 227.26C208.72 227.5 208.72 227.92 208.84 228.52H209.74C209.62 228.76 209.44 228.94 209.2 229.06C208.96 229.18 208.78 229.3 208.66 229.42C208.54 229.18 208.42 229 208.3 228.88C208.18 228.76 208.06 228.64 207.94 228.52C207.94 228.76 207.88 228.94 207.76 229.06C207.76 229.18 207.76 229.36 207.76 229.6C207.76 230.92 207.28 231.58 206.32 231.58C205.84 231.58 205.36 231.7 204.88 231.94C204.52 232.06 204.16 232.24 203.8 232.48C203.56 232.6 203.32 232.96 203.08 233.56C202.36 233.68 201.7 233.98 201.1 234.46C200.5 234.82 199.9 235.24 199.3 235.72C198.58 236.2 198.04 236.8 197.68 237.52C197.44 238.12 197.08 238.42 196.6 238.42C196 237.94 195.58 238.06 195.34 238.78C195.1 239.38 194.62 239.56 193.9 239.32C193.78 239.2 193.48 239.26 193 239.5C192.64 239.74 192.34 240.1 192.1 240.58L191.02 241.3C190.54 241.78 190.06 242.2 189.58 242.56C189.1 242.8 188.56 243.1 187.96 243.46C187.6 243.82 187.18 244 186.7 244C186.34 244 186.04 244 185.8 244C184.72 244 184.18 244.36 184.18 245.08C184.18 245.56 184.3 245.92 184.54 246.16C185.26 246.52 185.26 247.12 184.54 247.96C184.42 247.96 184.24 247.96 184 247.96C183.88 248.08 183.82 248.14 183.82 248.14C183.94 248.74 183.88 249.22 183.64 249.58C183.4 249.94 183.16 250.36 182.92 250.84L181.66 250.48C181.66 250.6 181.6 250.72 181.48 250.84C181.48 251.08 181.48 251.32 181.48 251.56C181.36 250.96 181.06 250.66 180.58 250.66C180.1 250.66 179.8 250.6 179.68 250.48C179.44 250.48 179.2 250.24 178.96 249.76C178.84 249.4 178.54 249.22 178.06 249.22C177.82 249.34 177.52 249.4 177.16 249.4C176.92 249.4 176.68 249.52 176.44 249.76C175.48 249.76 174.94 249.34 174.82 248.5C174.7 248.26 174.34 248.14 173.74 248.14C173.14 248.26 172.72 248.44 172.48 248.68C172.36 248.8 172.24 248.92 172.12 249.04C172.12 249.16 172.12 249.22 172.12 249.22L171.4 248.5C171.16 248.26 171.04 248.08 171.04 247.96C171.04 248.08 170.98 248.14 170.86 248.14C170.86 248.26 170.86 248.38 170.86 248.5C170.86 248.74 170.86 248.98 170.86 249.22C170.86 249.46 170.86 249.7 170.86 249.94V251.2C170.86 251.32 170.86 251.44 170.86 251.56C170.98 251.8 171.04 252.04 171.04 252.28H170.86C170.38 251.92 169.96 251.5 169.6 251.02C169.36 250.66 169 250.24 168.52 249.76C168.4 249.4 168.28 249.22 168.16 249.22C167.68 249.1 167.5 248.86 167.62 248.5C167.74 248.26 167.8 248.08 167.8 247.96C167.8 247.72 167.92 247.54 168.16 247.42C168.4 247.42 168.58 247.36 168.7 247.24C168.7 247.12 168.64 247 168.52 246.88C168.52 246.76 168.52 246.64 168.52 246.52C168.28 246.76 168.04 246.88 167.8 246.88C167.68 246.88 167.5 246.88 167.26 246.88C167.02 246.88 166.9 246.82 166.9 246.7C166.78 246.46 166.54 246.16 166.18 245.8C165.94 245.44 165.58 245.14 165.1 244.9V244.72C165.1 244 164.74 243.64 164.02 243.64C163.66 243.76 163.24 243.58 162.76 243.1C162.4 242.5 162.28 241.96 162.4 241.48V241.3C162.04 240.94 161.74 240.46 161.5 239.86C161.38 239.26 161.02 238.9 160.42 238.78C160.18 238.66 159.94 238.42 159.7 238.06C159.46 237.58 159.22 237.28 158.98 237.16C158.62 236.68 158.26 236.2 157.9 235.72C157.66 235.24 157.48 234.64 157.36 233.92C157.24 233.32 157 232.72 156.64 232.12C156.28 231.52 155.98 230.92 155.74 230.32L155.56 229.6C155.8 228.52 155.8 227.8 155.56 227.44C155.32 227.08 154.72 226.66 153.76 226.18C153.52 226.06 153.04 225.64 152.32 224.92C152.32 224.92 152.26 224.92 152.14 224.92C152.14 224.8 152.14 224.68 152.14 224.56C152.14 224.44 152.2 224.38 152.32 224.38C152.44 224.38 152.5 224.38 152.5 224.38C152.74 224.26 152.92 224.2 153.04 224.2C153.28 224.2 153.4 224.2 153.4 224.2C153.52 224.08 153.64 224.08 153.76 224.2C154 224.32 154.3 224.44 154.66 224.56C155.14 224.68 155.5 224.8 155.74 224.92L155.92 225.28C156.16 225.04 156.46 225.1 156.82 225.46C157.3 225.7 157.72 225.88 158.08 226C158.2 226.12 158.38 226.06 158.62 225.82C158.62 225.58 158.56 225.34 158.44 225.1C158.44 224.86 158.44 224.68 158.44 224.56H158.08C157.84 224.08 157.66 223.54 157.54 222.94C157.54 222.34 157.18 221.98 156.46 221.86C156.46 221.5 156.52 221.26 156.64 221.14C156.76 221.02 156.82 220.96 156.82 220.96C156.22 220.48 155.56 220.06 154.84 219.7C154.12 219.22 153.52 218.8 153.04 218.44V218.26C154 218.5 154.9 218.62 155.74 218.62C156.22 218.62 156.46 218.56 156.46 218.44C156.7 218.32 156.94 218.26 157.18 218.26C157.42 218.14 157.72 218.2 158.08 218.44C158.32 218.56 158.86 218.62 159.7 218.62C159.82 218.62 159.94 218.62 160.06 218.62C160.3 218.5 160.54 218.5 160.78 218.62C161.74 218.62 162.52 218.2 163.12 217.36C163.72 216.4 164.2 215.26 164.56 213.94ZM198.4 218.8C198.52 218.8 198.58 218.8 198.58 218.8C198.7 218.8 198.82 218.8 198.94 218.8H198.4ZM198.4 218.8C198.28 218.92 198.22 219.1 198.22 219.34C198.22 219.46 198.16 219.64 198.04 219.88H198.22C198.34 219.76 198.46 219.64 198.58 219.52C198.82 219.4 199 219.16 199.12 218.8H198.94C199.42 218.68 199.84 218.44 200.2 218.08C200.56 217.6 200.86 217.12 201.1 216.64C200.62 216.52 200.2 216.46 199.84 216.46C199.6 216.34 199.24 216.28 198.76 216.28C199 215.68 199.24 215.38 199.48 215.38C199.84 215.38 200.08 215.56 200.2 215.92C200.2 215.92 200.2 215.98 200.2 216.1C200.32 216.1 200.44 216.1 200.56 216.1C200.44 216.1 200.62 215.98 201.1 215.74C200.98 215.74 200.86 215.68 200.74 215.56C200.74 215.32 200.68 215.2 200.56 215.2H200.02C200.26 214.96 200.44 214.66 200.56 214.3C200.8 213.82 201.16 213.82 201.64 214.3C201.88 213.58 202 213.16 202 213.04C202.12 212.68 202.36 212.44 202.72 212.32C203.08 212.08 203.26 211.72 203.26 211.24C203.26 211.24 203.32 211.24 203.44 211.24C203.56 211.24 203.68 211.18 203.8 211.06C204.16 211.06 204.46 210.94 204.7 210.7C204.82 210.22 204.94 209.74 205.06 209.26C205.3 208.78 205.72 208.48 206.32 208.36C206.44 208.36 206.5 208.42 206.5 208.54C206.62 208.54 206.74 208.54 206.86 208.54L207.04 207.46C206.92 206.86 206.92 206.5 207.04 206.38C207.28 206.26 207.58 206.14 207.94 206.02C208.18 206.02 208.36 205.9 208.48 205.66C208.72 204.7 208.9 204.16 209.02 204.04C209.62 203.56 210.04 203.08 210.28 202.6C210.52 202 210.76 201.46 211 200.98L211.54 200.44C212.14 199.48 212.62 198.7 212.98 198.1C213.46 197.5 213.82 196.78 214.06 195.94C214.3 195.1 214.54 194.32 214.78 193.6C215.02 192.76 215.26 191.56 215.5 190C215.98 186.88 217 186.28 218.56 188.2H219.1C220.3 189.16 220.9 188.8 220.9 187.12C221.38 185.8 221.8 184.42 222.16 182.98C222.52 181.42 222.82 179.74 223.06 177.94C223.18 177.58 223.3 177.1 223.42 176.5C223.66 175.78 224.32 174.7 225.4 173.26C225.4 172.18 225.64 171.64 226.12 171.64C226.12 170.56 226.18 169.6 226.3 168.76C226.42 167.92 226.78 166.96 227.38 165.88C227.74 164.8 228.1 163.84 228.46 163C228.82 162.16 229.12 161.38 229.36 160.66C229.36 160.42 229.24 160.18 229 159.94C228.88 159.58 228.82 159.28 228.82 159.04C228.46 159.28 227.92 159.46 227.2 159.58C226.48 159.7 226.12 159.88 226.12 160.12C225.76 160.96 225.04 161.44 223.96 161.56C222.88 161.68 221.98 161.74 221.26 161.74C221.26 160.66 221.44 159.64 221.8 158.68C222.28 157.72 223.3 157 224.86 156.52C224.98 156.52 225.04 156.52 225.04 156.52C225.16 156.4 225.22 156.34 225.22 156.34H225.4C225.4 156.46 225.34 156.64 225.22 156.88C225.1 157 224.98 157.18 224.86 157.42C224.62 157.06 224.62 156.76 224.86 156.52C224.98 156.4 225.1 156.34 225.22 156.34L227.38 155.8C227.26 155.32 227.2 154.9 227.2 154.54C227.2 154.06 226.78 153.58 225.94 153.1C225.82 153.1 225.76 153.1 225.76 153.1C225.76 152.98 225.76 152.92 225.76 152.92C225.28 152.68 224.92 152.32 224.68 151.84L222.7 152.38C222.94 151.54 223.06 150.7 223.06 149.86C223.18 149.02 222.94 148.18 222.34 147.34C221.62 147.58 221.26 147.7 221.26 147.7C221.14 147.46 221.02 147.28 220.9 147.16C220.78 147.04 220.66 146.86 220.54 146.62L220.36 146.44C220.12 145.96 219.94 145.6 219.82 145.36C219.7 145 219.52 144.7 219.28 144.46C218.2 143.02 216.94 141.88 215.5 141.04C214.78 140.92 214.12 140.74 213.52 140.5C213.04 140.14 212.44 139.9 211.72 139.78C210.16 139.06 208.24 138.4 205.96 137.8C204.64 137.56 203.26 137.32 201.82 137.08C200.5 136.84 199.18 136.6 197.86 136.36H197.5C195.94 136.36 194.62 136.12 193.54 135.64L189.58 135.1C189.46 134.98 189.1 134.98 188.5 135.1C188.02 135.1 187.72 135.16 187.6 135.28C186.88 135.4 186.1 135.34 185.26 135.1C184.78 135.1 184.42 135.28 184.18 135.64C184.06 136.12 183.94 136.6 183.82 137.08C183.82 137.44 183.82 137.86 183.82 138.34C183.7 138.7 183.64 139.12 183.64 139.6C184 139.6 184.3 139.54 184.54 139.42C184.42 139.78 184.3 140.14 184.18 140.5C184.18 140.86 184.18 141.16 184.18 141.4C184.06 141.28 184 141.22 184 141.22C184 141.1 183.94 140.98 183.82 140.86H183.64C183.4 141.34 183.28 141.76 183.28 142.12V143.2C183.04 144.16 183.1 144.7 183.46 144.82C183.22 145.78 183.1 146.62 183.1 147.34C183.1 147.46 183.04 147.58 182.92 147.7C182.92 147.82 182.98 148 183.1 148.24C183.1 148.96 183.04 149.44 182.92 149.68V150.58C183.04 151.06 183.04 151.6 182.92 152.2C182.8 152.8 182.8 153.4 182.92 154C182.92 154.36 182.92 154.72 182.92 155.08C183.04 155.32 183.16 155.62 183.28 155.98H183.64C183.76 155.5 183.82 154.84 183.82 154C183.82 154.12 183.82 154.18 183.82 154.18C183.94 154.18 184 154.18 184 154.18V154.36C184 154.36 184 154.42 184 154.54V154.18C183.88 153.58 183.88 153.1 184 152.74C184.24 152.38 184.48 152.02 184.72 151.66C184.84 151.66 184.9 151.72 184.9 151.84C184.66 152.56 184.42 153.04 184.18 153.28C184.18 153.52 184.12 153.88 184 154.36C184.24 154.6 184.48 154.78 184.72 154.9C184.96 155.02 185.14 155.2 185.26 155.44C185.26 155.68 185.2 155.98 185.08 156.34C184.96 156.58 184.9 156.88 184.9 157.24C184.78 158.08 184.66 158.86 184.54 159.58C184.54 160.3 184.54 160.96 184.54 161.56C184.42 161.92 184.3 162.28 184.18 162.64C184.18 162.88 184.06 163.12 183.82 163.36C183.94 163.12 184 162.88 184 162.64C184 162.4 184.06 162.22 184.18 162.1C184.18 161.02 184.12 160.3 184 159.94C184 159.7 183.94 159.52 183.82 159.4C183.82 159.28 183.82 159.16 183.82 159.04C183.58 159.28 183.46 159.58 183.46 159.94C183.46 160.42 183.46 160.9 183.46 161.38C183.46 161.86 183.34 162.34 183.1 162.82C182.86 163.18 182.74 163.84 182.74 164.8C183.22 164.56 183.46 164.44 183.46 164.44C183.46 164.32 183.52 164.26 183.64 164.26C183.76 164.26 183.88 164.32 184 164.44L183.64 168.4C183.64 168.88 183.52 169.48 183.28 170.2C183.16 170.68 183.04 171.22 182.92 171.82C182.92 172.42 182.92 173.02 182.92 173.62C183.04 173.98 183.1 174.64 183.1 175.6C183.46 174.64 183.7 174.1 183.82 173.98C183.94 173.86 184.18 173.8 184.54 173.8C184.54 173.92 184.48 174.16 184.36 174.52C184.24 174.88 184.18 175.18 184.18 175.42L183.82 175.96C183.58 176.2 183.52 176.74 183.64 177.58C183.76 177.46 184.06 177.4 184.54 177.4C184.54 177.76 184.54 178.3 184.54 179.02C184.54 179.62 184.42 180.28 184.18 181L183.64 184.42C183.52 184.78 183.46 185.2 183.46 185.68C183.34 185.8 183.28 185.92 183.28 186.04C183.4 186.16 183.46 186.34 183.46 186.58C183.46 187.06 183.52 187.48 183.64 187.84C183.76 188.2 183.76 188.56 183.64 188.92C183.4 189.52 183.28 190.12 183.28 190.72C183.28 191.32 183.34 192.04 183.46 192.88C183.34 193.12 183.28 193.42 183.28 193.78C183.16 194.14 183.1 194.62 183.1 195.22C183.22 195.7 183.22 196.24 183.1 196.84C183.1 197.68 183.16 198.22 183.28 198.46C183.28 198.82 183.22 199.12 183.1 199.36C183.1 199.6 183.16 199.96 183.28 200.44C183.28 200.56 183.28 200.68 183.28 200.8C183.4 200.92 183.46 201.1 183.46 201.34V203.5C183.46 203.98 183.46 204.46 183.46 204.94C183.46 205.3 183.52 205.78 183.64 206.38C183.76 206.86 183.7 207.34 183.46 207.82C183.34 208.18 183.34 208.54 183.46 208.9C183.46 208.9 183.4 208.96 183.28 209.08V210.34C183.28 210.46 183.28 210.58 183.28 210.7C183.4 210.82 183.46 211 183.46 211.24C183.58 212.08 183.58 212.92 183.46 213.76C183.46 214.6 183.52 215.44 183.64 216.28V216.82C183.4 218.02 183.76 218.62 184.72 218.62C185.32 218.38 185.68 218.14 185.8 217.9C186.04 218.26 186.1 218.44 185.98 218.44C185.86 218.8 185.62 219.16 185.26 219.52C184.9 219.88 184.54 220.24 184.18 220.6C184.42 220.72 184.66 220.84 184.9 220.96C185.26 220.96 185.5 221.08 185.62 221.32C185.62 221.44 185.56 221.62 185.44 221.86H184.18C183.94 221.86 183.76 221.92 183.64 222.04V223.48C183.64 224.2 184 224.38 184.72 224.02C185.32 223.66 185.68 223.18 185.8 222.58L186.34 222.22C186.7 222.34 186.88 222.7 186.88 223.3C186.4 223.42 185.98 223.66 185.62 224.02C185.38 224.26 185.14 224.62 184.9 225.1L184.72 225.46C184.6 225.7 184.48 225.94 184.36 226.18C184.24 226.42 184.12 226.72 184 227.08V228.52C184.12 228.52 184.3 228.52 184.54 228.52C184.78 228.52 185.02 228.64 185.26 228.88C185.02 229.36 185.02 229.66 185.26 229.78C185.62 229.78 185.86 229.78 185.98 229.78C185.86 229.9 185.8 230.14 185.8 230.5C185.8 230.74 185.74 230.98 185.62 231.22C185.74 231.22 185.86 231.22 185.98 231.22C186.22 231.1 186.52 231.04 186.88 231.04C187.48 231.04 187.78 230.68 187.78 229.96C187.66 229.6 187.36 229.42 186.88 229.42C186.52 229.06 186.22 228.64 185.98 228.16H187.24C187.6 228.16 187.78 228.16 187.78 228.16C188.38 227.68 188.92 227.44 189.4 227.44C189.88 227.44 190.36 227.38 190.84 227.26C190.96 227.14 191.2 227.2 191.56 227.44C192.04 228.16 192.7 228.22 193.54 227.62L194.08 226.72C195.4 225.76 196.54 224.86 197.5 224.02C198.46 223.06 199.42 221.98 200.38 220.78C201.34 220.18 202.06 219.52 202.54 218.8C202.78 218.68 202.96 218.62 203.08 218.62C203.32 218.5 203.5 218.38 203.62 218.26C203.38 218.26 203.14 218.2 202.9 218.08C202.78 217.84 202.6 217.66 202.36 217.54C202.12 217.54 202 217.78 202 218.26C201.88 218.38 201.7 218.68 201.46 219.16C201.1 219.4 200.8 219.7 200.56 220.06C200.44 220.3 200.26 220.48 200.02 220.6C199.66 220.96 199.3 221.26 198.94 221.5C198.58 221.62 198.16 221.8 197.68 222.04C197.08 222.28 196.78 222.1 196.78 221.5C197.26 220.9 197.26 220.42 196.78 220.06C196.66 219.82 196.66 219.4 196.78 218.8C197.02 218.8 197.14 218.8 197.14 218.8C197.14 218.68 197.2 218.62 197.32 218.62C197.56 218.74 197.92 218.8 198.4 218.8ZM197.5 231.58C197.62 231.46 197.86 231.4 198.22 231.4C198.58 231.16 198.94 230.86 199.3 230.5C199.78 230.02 200.14 229.72 200.38 229.6C201.1 229.36 201.64 229 202 228.52C202.48 227.92 203.02 227.44 203.62 227.08C203.98 226.6 204.82 226.12 206.14 225.64C206.38 225.4 206.56 225.16 206.68 224.92C206.8 224.68 206.92 224.5 207.04 224.38C206.8 224.14 206.56 223.96 206.32 223.84C205.6 223.84 205.24 223.84 205.24 223.84C205.12 223.96 204.94 224.14 204.7 224.38C204.58 224.62 204.34 224.92 203.98 225.28H203.8C203.56 225.04 203.32 225.04 203.08 225.28C202.84 225.52 202.54 225.7 202.18 225.82C202.18 225.82 201.94 225.94 201.46 226.18C200.86 226.66 200.26 227.2 199.66 227.8C199.06 228.4 198.34 228.88 197.5 229.24C197.5 229.24 197.44 229.3 197.32 229.42C197.32 229.42 197.32 229.48 197.32 229.6C197.08 229.72 196.78 230.02 196.42 230.5C196.18 230.86 195.94 231.16 195.7 231.4C195.46 231.64 195.34 231.82 195.34 231.94H196.06C196.66 231.34 197.14 231.22 197.5 231.58ZM178.78 177.58C178.9 178.06 178.96 178.48 178.96 178.84C179.08 179.2 179.2 179.5 179.32 179.74C179.56 180.46 179.68 180.82 179.68 180.82C179.68 180.7 179.74 180.64 179.86 180.64C179.98 180.52 180.04 180.4 180.04 180.28V179.38C180.04 179.14 179.98 178.96 179.86 178.84C179.86 178.72 179.86 178.54 179.86 178.3C179.74 178.06 179.68 177.88 179.68 177.76C179.8 177.52 179.8 177.34 179.68 177.22C179.44 176.38 179.14 175.72 178.78 175.24C179.26 174.64 179.5 173.74 179.5 172.54C179.62 171.34 179.56 170.68 179.32 170.56C179.2 170.92 179.02 171.16 178.78 171.28C178.54 171.4 178.36 171.58 178.24 171.82C178.12 171.94 177.94 172.06 177.7 172.18V174.52C177.7 174.88 177.7 175.18 177.7 175.42C177.7 175.66 177.7 175.96 177.7 176.32V178.66C178.18 178.06 178.54 177.7 178.78 177.58ZM194.62 235.72C195.34 235.72 195.82 235.6 196.06 235.36C196.18 235.12 196.18 234.88 196.06 234.64C196.06 234.28 196.12 234.04 196.24 233.92V233.38C195.88 233.38 195.64 233.44 195.52 233.56C195.4 233.56 195.22 233.62 194.98 233.74C194.86 233.74 194.74 233.74 194.62 233.74C194.14 233.74 193.9 234.04 193.9 234.64C193.9 235.36 194.14 235.72 194.62 235.72ZM201.46 224.56C201.82 224.56 202 224.44 202 224.2C202 224.08 202 224.02 202 224.02C202 223.9 202 223.78 202 223.66V222.94C201.88 223.18 201.76 223.36 201.64 223.48C201.52 223.48 201.46 223.54 201.46 223.66C201.46 224.02 201.28 224.2 200.92 224.2C200.68 224.2 200.44 224.2 200.2 224.2C199.84 224.08 199.66 224.32 199.66 224.92C199.66 225.28 199.72 225.58 199.84 225.82C200.08 225.94 200.26 225.94 200.38 225.82C200.98 225.82 201.52 225.64 202 225.28C201.88 225.04 201.76 224.92 201.64 224.92C201.64 224.8 201.58 224.68 201.46 224.56ZM207.04 228.52C207.76 228.52 208.12 228.16 208.12 227.44C208.12 227.44 208 227.2 207.76 226.72C207.28 227.2 206.98 227.56 206.86 227.8L207.04 228.52ZM197.68 227.08V226.72C197.2 226.72 196.9 226.9 196.78 227.26C196.66 227.62 196.48 227.98 196.24 228.34C196.6 228.34 196.78 228.16 196.78 227.8C197.26 227.68 197.56 227.44 197.68 227.08ZM179.14 202.78H179.5C179.62 202.18 179.62 201.64 179.5 201.16L179.32 200.44C179.2 200.8 179.08 201.04 178.96 201.16C178.96 201.16 178.96 201.22 178.96 201.34C179.08 201.58 179.14 202.06 179.14 202.78ZM190.3 236.26H191.56C191.56 235.9 191.44 235.72 191.2 235.72C191.08 235.48 190.9 235.48 190.66 235.72C190.54 235.84 190.42 236.02 190.3 236.26ZM160.78 229.78C160.78 229.54 160.72 229.36 160.6 229.24C160.6 229.12 160.54 228.94 160.42 228.7C160.42 228.7 160.36 228.7 160.24 228.7C160.24 228.58 160.18 228.52 160.06 228.52C160.06 228.52 160.06 228.58 160.06 228.7C160.06 228.7 160 228.7 159.88 228.7C159.88 229.42 160.18 229.78 160.78 229.78ZM182.92 167.68C182.92 168.04 182.92 168.46 182.92 168.94C183.04 169.3 183.1 169.6 183.1 169.84C183.34 168.76 183.28 168.04 182.92 167.68ZM161.32 232.66C160.84 233.62 161.2 234.1 162.4 234.1C162.16 233.86 161.92 233.68 161.68 233.56C161.56 233.32 161.44 233.02 161.32 232.66ZM204.7 222.22C204.7 222.1 204.7 222.04 204.7 222.04C204.82 221.92 204.88 221.8 204.88 221.68C204.88 221.44 204.82 221.26 204.7 221.14C204.7 221.02 204.7 220.9 204.7 220.78C204.7 220.9 204.64 221.02 204.52 221.14C204.52 221.26 204.52 221.44 204.52 221.68C204.52 221.92 204.58 222.1 204.7 222.22ZM183.64 164.26C183.64 164.02 183.64 163.84 183.64 163.72C183.76 163.6 183.82 163.48 183.82 163.36C183.46 163.72 183.4 164.02 183.64 164.26ZM226.48 215.2C226.36 215.32 226.24 215.56 226.12 215.92C226 216.16 225.82 216.4 225.58 216.64C225.46 216.76 225.04 216.94 224.32 217.18C224.08 217.18 223.96 217.36 223.96 217.72C223.96 218.2 223.9 218.5 223.78 218.62C223.66 218.62 223.48 218.74 223.24 218.98C223.12 218.98 222.94 219.16 222.7 219.52C222.34 219.88 222.1 220.06 221.98 220.06C221.26 219.82 220.9 220.12 220.9 220.96C220.66 221.44 220.36 221.5 220 221.14C220 221.02 220 220.9 220 220.78C220.12 220.66 220.18 220.54 220.18 220.42C219.7 220.18 219.28 219.88 218.92 219.52H220C220.36 219.52 220.6 219.46 220.72 219.34C220.96 219.22 221.2 219.16 221.44 219.16C221.92 218.92 222.34 218.68 222.7 218.44C223.18 218.2 223.54 217.84 223.78 217.36C223.9 217.24 223.96 217.12 223.96 217C224.44 216.76 224.86 216.46 225.22 216.1C225.7 215.62 226.06 215.26 226.3 215.02L226.48 215.2ZM217.3 224.56C216.94 224.68 216.58 224.98 216.22 225.46C215.86 225.82 215.44 225.94 214.96 225.82C214.96 225.7 214.84 225.76 214.6 226L213.52 226.72C213.04 227.08 212.74 226.96 212.62 226.36C212.86 226.12 213.16 225.88 213.52 225.64C213.88 225.28 214.3 224.92 214.78 224.56C215.5 224.8 215.92 224.56 216.04 223.84C216.28 223.96 216.52 224.14 216.76 224.38C216.76 224.5 216.94 224.56 217.3 224.56ZM198.94 238.78C199.66 238.54 200.26 238.3 200.74 238.06C200.74 238.18 200.74 238.3 200.74 238.42C200.74 238.42 200.74 238.48 200.74 238.6L199.84 239.14C199.24 239.26 198.64 239.5 198.04 239.86C197.44 240.22 196.84 240.52 196.24 240.76C196.24 240.76 196.06 240.76 195.7 240.76C195.82 240.64 195.88 240.52 195.88 240.4C195.88 240.28 195.94 240.22 196.06 240.22C196.42 239.98 196.78 239.8 197.14 239.68C197.5 239.56 197.86 239.44 198.22 239.32C198.46 239.2 198.7 239.02 198.94 238.78ZM185.62 227.8C185.5 227.56 185.5 227.38 185.62 227.26C185.74 227.02 185.86 226.84 185.98 226.72C186.1 226.72 186.28 226.66 186.52 226.54C186.76 226.42 186.88 226.36 186.88 226.36C186.88 226.24 186.94 226.12 187.06 226C187.42 226.36 187.6 226.6 187.6 226.72C187.6 227.08 187.36 227.38 186.88 227.62C186.52 227.62 186.22 227.68 185.98 227.8C185.86 227.8 185.74 227.8 185.62 227.8ZM208.3 233.74C208.42 232.78 208.72 232.3 209.2 232.3C209.68 232.18 210.04 231.94 210.28 231.58C210.16 231.82 210.1 232.12 210.1 232.48C210.1 232.72 209.98 233.02 209.74 233.38C209.62 233.5 209.38 233.56 209.02 233.56C208.78 233.56 208.54 233.62 208.3 233.74ZM193.54 241.3C194.02 241.06 194.2 240.94 194.08 240.94C194.2 240.94 194.32 241 194.44 241.12C194.56 241.12 194.68 241.12 194.8 241.12L194.26 241.48C194.14 241.48 194.02 241.48 193.9 241.48C193.9 241.36 193.78 241.3 193.54 241.3ZM201.82 237.7C201.82 237.34 202.18 237.22 202.9 237.34C202.18 237.58 201.82 237.7 201.82 237.7ZM197.14 216.64C196.78 217 196.36 217.18 195.88 217.18C195.76 217.18 195.58 217.24 195.34 217.36C195.22 217.36 195.04 217.36 194.8 217.36C194.68 217.36 194.56 217.36 194.44 217.36C194.32 217.24 194.26 217.18 194.26 217.18C194.26 216.7 194.2 216.46 194.08 216.46C193.96 216.46 193.84 216.58 193.72 216.82C193.72 216.94 193.66 217 193.54 217C193.78 216.76 193.84 216.46 193.72 216.1C193.72 215.62 193.78 215.32 193.9 215.2C194.62 215.08 195.1 215.14 195.34 215.38C195.46 215.5 195.64 215.68 195.88 215.92C196.12 216.04 196.36 216.16 196.6 216.28C196.6 216.28 196.78 216.4 197.14 216.64ZM195.16 220.78C194.92 220.9 194.68 221.02 194.44 221.14C194.32 221.14 194.38 221.38 194.62 221.86C194.62 221.86 194.56 221.92 194.44 222.04C194.32 222.16 194.2 222.22 194.08 222.22L193.54 221.68C193.54 221.32 193.6 221.02 193.72 220.78C193.84 220.54 193.9 220.36 193.9 220.24C194.38 219.76 194.8 219.94 195.16 220.78ZM195.16 220.78C195.64 220.3 195.94 220.42 196.06 221.14C196.18 221.5 196.3 221.74 196.42 221.86C196.54 221.98 196.66 222.16 196.78 222.4C196.66 222.52 196.42 222.58 196.06 222.58C195.94 222.34 195.82 222.1 195.7 221.86C195.58 221.62 195.4 221.26 195.16 220.78ZM219.28 166.6C220 166 220.54 165.46 220.9 164.98C221.26 164.5 221.62 164.14 221.98 163.9C223.3 164.14 224.08 164.44 224.32 164.8C224.56 165.04 224.02 165.82 222.7 167.14C222.34 167.14 221.92 167.14 221.44 167.14C220.96 167.02 220.24 166.84 219.28 166.6ZM191.56 222.58C191.68 223.18 191.86 223.72 192.1 224.2C191.5 224.2 191.14 224.14 191.02 224.02C191.14 223.78 191.2 223.54 191.2 223.3C191.32 222.94 191.44 222.7 191.56 222.58ZM198.22 216.82C198.46 217.06 198.58 217.24 198.58 217.36C198.46 217.36 198.34 217.42 198.22 217.54C198.22 217.66 198.16 217.72 198.04 217.72H197.68C197.68 217.48 197.74 217.3 197.86 217.18C197.98 217.06 198.1 216.94 198.22 216.82Z" fill="#FFD700"/>
</svg>
